# xmcd
# Copyright (C) 1995-1998 Ti Kan
#
# Track frame offsets:
#       150
#       29242
#       60285
#       77900
#       101905
#       124812
#       151315
#       173552
#       197602
#       221847
#       245715
#       279445
#
# Disc length: 4033 seconds
#
# Revision: 0
# Processed by: cddbd v1.5.2PL0 Copyright (c) Steve Scherf et al.
# Submitted via: CD-Import v1.0
#
DISCID=ac0fbf0c
DTITLE=Fatboy Slim - You've Come A Long Way, Baby
DYEAR=1998
DGENRE=
TTITLE0=Right Here, Right Now
TTITLE1=The Rockafeller Skank
TTITLE2=In Heaven
TTITLE3=Gangster Tripping
TTITLE4=Build It Up/Tear It Down
TTITLE5=Kalifornia
TTITLE6=Soul Surfing
TTITLE7=You're Not From Brighton
TTITLE8=Praise You
TTITLE9=Love Island
TTITLE10=Acid 8000
TTITLE11=How Could They Hear Us
EXTD=
EXTT0=
EXTT1=
EXTT2=
EXTT3=
EXTT4=
EXTT5=
EXTT6=
EXTT7=
EXTT8=
EXTT9=
EXTT10=
EXTT11=
PLAYORDER=
